<?xml version="1.0" ?><svg style="enable-background:new 0 0 24 24;" version="1.1" viewBox="0 0 24 24" xml:space="preserve" xmlns="http://www.w3.org/2000/svg" xmlns:xlink="http://www.w3.org/1999/xlink"><style type="text/css">
	.st0{display:none;}
	.st1{display:inline;}
	.st2{opacity:0.2;fill:none;stroke:#000000;stroke-width:5.000000e-02;stroke-miterlimit:10;}
</style><g class="st0" id="grid_system"/><g id="_icons"><path d="M19.3,4.4l-2.7-0.9c-1-0.3-2.1-0.3-3.2,0L9.9,4.6C9.6,4.7,9.3,4.8,9,4.8c0,0,0,0,0,0c0,0,0,0,0,0c-0.3,0-0.6-0.1-0.9-0.2   L7.3,4.4C6,4,4.7,4.2,3.7,4.9C2.6,5.7,2,6.9,2,8.2v7.7c0,1.7,1.1,3.3,2.7,3.8l2.7,0.9c0.5,0.2,1,0.3,1.6,0.3c0.5,0,1.1-0.1,1.6-0.3   l3.5-1.2c0.3-0.1,0.6-0.2,0.9-0.2c0,0,0,0,0,0c0,0,0,0,0,0c0.3,0,0.6,0.1,0.9,0.2l0.8,0.3c1.2,0.4,2.5,0.2,3.6-0.6   c1.1-0.8,1.7-1.9,1.7-3.2V8.2C22,6.4,20.9,4.9,19.3,4.4z M8,18.6l-2.6-0.9c-0.8-0.3-1.4-1-1.4-1.9V8.2c0-0.7,0.3-1.2,0.8-1.6   C5.2,6.3,5.6,6.2,6,6.2c0.2,0,0.4,0,0.6,0.1l0.8,0.3C7.6,6.6,7.8,6.6,8,6.7V18.6z M14,17.3c-0.2,0-0.4,0.1-0.6,0.1L10,18.6V6.7   c0.2,0,0.4-0.1,0.6-0.1L14,5.4V17.3z M20,15.8c0,0.7-0.3,1.2-0.8,1.6s-1.2,0.5-1.8,0.3l-0.8-0.3c-0.2-0.1-0.4-0.1-0.6-0.1V5.4   l2.6,0.9c0.8,0.3,1.4,1,1.4,1.9V15.8z"/></g></svg>