<?xml version="1.0" ?><svg xmlns="http://www.w3.org/2000/svg" id="Layer_4" data-name="Layer 4" width="512" height="512" viewBox="0 0 512 512"><defs><style>
      .cls-1 {
        stroke-width: 0px;
      }
    </style></defs><path class="cls-1" d="m248.015,239.257c4.639.657,9.43-2.164,11.148-6.489,1.708,4.319,6.541,7.155,11.147,6.489,20.116-2.497,22.519-18.841,23.954-28.605.452-3.077,1.072-7.292,2.014-8.336,8.241-9.137,10.683-18.661,8.147-31.821-2.145-16.555-22.829-25.453-37.746-17.308-4.645-1.359-10.388-1.359-15.033,0-14.915-8.14-35.601.748-37.746,17.308-2.534,13.16-.092,22.685,8.148,31.821.941,1.044,1.561,5.259,2.014,8.336,1.435,9.765,3.837,26.108,23.952,28.605Zm-22.304-66.632c.901-9.425,14.105-13.551,21.841-7.916,4.231,2.789,6.403-.772,11.611-.537,5.199-.239,7.393,3.328,11.612.536,7.583-5.554,20.661-1.617,21.78,7.554,1.939,9.633.668,15.609-5.187,22.016-3.375,3.741-4.152,9.029-4.976,14.628-1.486,10.106-2.909,16.538-12.193,18.234l-2.303-20.925c-.476-4.607-4.649-7.791-9.201-7.408-4.245,0-7.799,3.183-8.266,7.406l-2.303,20.926c-9.283-1.696-10.707-8.127-12.192-18.234-.823-5.598-1.601-10.886-4.976-14.628-5.752-6.377-7.125-12.044-5.248-21.654Z"/><path class="cls-1" d="m422.039,370.705c0-3.314-2.687-6-6-6-7.943.274-7.941,11.727,0,12,3.313,0,6-2.686,6-6Z"/><path class="cls-1" d="m474.36,498.621l-49.682-72.895c2.152-5.468,5.499-16.98,3.669-32.576-.386-3.291-3.362-5.65-6.658-5.26-3.291.386-5.646,3.367-5.26,6.658,2.071,17.656-3.798,28.801-3.84,28.879-1.101,1.982-.989,4.417.288,6.291l51.566,75.66c4.686,6.398,14.167-.027,9.916-6.758Z"/><path class="cls-1" d="m409.045,346.38c-.764-1.115-9.587-12.99-10.607-14.385V22.012c0-9.925-8.075-18-18-18h-248.875c-9.925,0-18,8.075-18,18v284.878c-1.199.584-2.357,1.23-3.458,1.948-1.483-2.069-3.588-3.723-6.159-4.641-15.836-6.022-34.888,3.02-40.236,19.099-13.022,37.932-29.517,67.898-16.364,109.268,6.006,19.305,5.582,40.424-1.195,59.47l-2.83,7.955c-2.413,7.423,8.298,11.518,11.307,4.021,9.723-23.693,12.04-50.449,4.176-75.012-6.006-19.303-5.583-40.422,1.194-59.469l15.018-42.212c1.748-4.911,5.301-8.845,10.004-11.076,4.7-2.229,9.988-2.493,14.893-.744.507.182.77.751.584,1.271l-2.792,7.848-11.451,32.186c-1.11,3.121.521,6.553,3.643,7.664,3.039,1.106,6.557-.489,7.664-3.643.006-.027,11.454-32.185,11.461-32.214,2.686-7.866,10.698-13.238,18.977-12.899,2.014.079,4.01.45,5.914,1.122.507.182.77.751.584,1.271-1.92,5.348-15.39,43.294-17.642,49.587-1.44,3.809,1.606,8.08,5.653,8.013,2.467,0,4.778-1.533,5.653-3.991,0,0,14.46-40.645,14.461-40.646,1.925-5.431,6.339-9.879,11.775-11.811,4.241-1.485,8.818-1.55,13.105-.013.176.066.334.163.427.322.245.253.267.631.18.956l-20.655,58.058c-1.11,3.122.521,6.553,3.643,7.664,3.039,1.104,6.557-.488,7.664-3.643,9.966-28.017,30.024-84.386,39.96-112.315,3.408-10.145,16.642-14.06,24.948-7.227,3.662,2.94,5.84,7.43,6.039,12.178.086,2.091-.216,4.231-.955,6.308l-21.65,60.851c-1.092,3.398,3.113,36.882-12.33,80.503-1.11,3.121.521,6.553,3.643,7.664,3.038,1.104,6.558-.488,7.664-3.643,7.11-19.984,10.382-38.743,11.834-53.364,7.577,22.939,5.541,48.919-5.936,70.216-6.752,12.603-16.54,23.44-28.655,31.473-9.434,6.255-17.682,14.046-24.518,23.156-4.534,6.464,4.576,13.416,9.6,7.201,6.011-8.012,13.261-14.86,21.549-20.355,12.789-8.479,23.306-19.701,30.894-32.729h49.863c2.738,10.485,11.633,24.907,32.424,28.996l17.793,24.057c1.177,1.591,2.991,2.432,4.829,2.432,4.786.105,7.784-5.737,4.819-9.568,0,0-19.223-25.989-19.223-25.989-.946-1.279-2.362-2.13-3.936-2.365-15.362-2.301-21.565-11.272-24.05-17.562h67.817c2.266,0,4.338-1.276,5.357-3.299,1.021-2.022.813-4.447-.533-6.269-8.563-11.579-11.463-23.302-8.676-35.358,2.696-11.917,11.351-23.664,21.164-33.29,2.129-2.097,2.391-5.439.614-7.842l-25.974-35.119c-10.397-13.753-6.501-33.928,7.944-43.189,8.689,11.782,40.115,54.173,48.183,65.184,4.817,6.31,14.162-.318,9.779-6.953ZM131.562,16.012h248.875c3.309,0,6,2.691,6,6v293.759l-12-16.225V46.356c0-9.115-7.416-16.531-16.531-16.531h-32.785c-9.756,0-18.791,5.281-23.58,13.784l-5.937,10.545c-2.666,4.732-7.694,7.672-13.125,7.672h-52.959c-5.431,0-10.459-2.939-13.123-7.671l-5.939-10.546c-4.788-8.502-13.823-13.783-23.58-13.783h-32.785c-9.115,0-16.53,7.416-16.53,16.531v259.049c-3.841-1.33-7.942-1.901-12-1.67V22.012c0-3.309,2.691-6,6-6Zm70.697,234.112c-4.777,2.164-8.925,5.658-11.812,10.039-5.263-42.723-4.661-86.382-.41-129.207.292-2.804,2.541-5.051,5.345-5.344,42.322-4.42,85.239-4.42,127.562,0,2.804.292,5.052,2.54,5.344,5.344,4.42,42.322,4.42,85.24,0,127.564-.292,2.803-2.54,5.05-5.344,5.343-27.382,2.86-55.135,3.879-82.579,3.037-4.753-15.525-23.238-23.799-38.105-16.776Zm21.377,105.056l-4.46-10.922,3.85-10.82h73.329c3.309,0,6,2.691,6,6v9.742c0,3.309-2.691,6-6,6h-72.719Zm52.113,85.336h-48.958c1.795-4.504,3.405-9.099,4.546-13.814h104.001c.999,4.649,2.666,9.259,5.021,13.814h-64.611Zm66.534-160.784c-18.429,13.049-22.593,40.869-8.793,58.742,0,0,22.935,31.012,22.935,31.012-11.644,12.318-21.705,28.237-22.161,45.216h-100.666c2.066-16.047.268-32.322-5.178-47.521h67.934c9.925,0,18-8.075,18-18v-9.742c0-9.925-8.075-18-18-18h-69.059c1.401-4.761,14.399-38.255,14.29-42.498,27.532.776,55.218-.284,82.605-3.141,8.412-.879,15.154-7.622,16.032-16.033,4.506-43.149,4.506-86.906,0-130.055-.878-8.413-7.62-15.156-16.033-16.034-43.149-4.506-86.906-4.506-130.054,0-8.413.878-15.156,7.622-16.034,16.034-4.505,43.149-4.505,86.906,0,130.056.536,5.126,3.186,9.625,7.151,12.567l-12.799,35.974c-7.254-2.94-15.615-2.901-22.893-.056V46.356c0-2.498,2.032-4.531,4.53-4.531h32.785c5.431,0,10.459,2.94,13.124,7.671l5.938,10.546c4.788,8.502,13.823,13.784,23.58,13.784h52.959c9.757,0,18.792-5.282,23.581-13.784l5.937-10.545c2.666-4.732,7.694-7.672,13.124-7.672h32.785c2.499,0,4.531,2.033,4.531,4.531v236.964l-5.273-7.13c-1.971-2.665-5.728-3.229-8.392-1.257l-6.488,4.798Z"/></svg>