<?xml version="1.0" ?><!DOCTYPE svg  PUBLIC '-//W3C//DTD SVG 1.1//EN'  'http://www.w3.org/Graphics/SVG/1.1/DTD/svg11.dtd'><svg height="512px" style="enable-background:new 0 0 512 512;" version="1.1" viewBox="0 0 512 512" width="512px" xml:space="preserve" xmlns="http://www.w3.org/2000/svg" xmlns:xlink="http://www.w3.org/1999/xlink"><g id="_x35_6_x2C__reach_x2C__Touch_x2C__destination_x2C__digital_x2C__analytic"><g><path d="M326.904,420.741c-0.874-0.872-2.099-1.432-3.426-1.432    c-1.33,0-2.551,0.539-3.425,1.41c-0.892,0.894-1.433,2.117-1.433,3.446c0,1.328,0.541,2.553,1.412,3.425    c0.895,0.871,2.115,1.411,3.445,1.411c1.327,0,2.552-0.54,3.426-1.411c0.87-0.872,1.41-2.097,1.41-3.425    C328.314,422.817,327.774,421.613,326.904,420.741 M323.479,414.203c2.741,0,5.229,1.12,7.037,2.927    c1.786,1.784,2.906,4.275,2.906,7.036c0,2.739-1.12,5.23-2.906,7.036c-1.808,1.806-4.296,2.906-7.037,2.906    c-2.74,0-5.229-1.121-7.036-2.906c-1.808-1.806-2.905-4.297-2.905-7.036s1.098-5.23,2.905-7.036    C318.25,415.323,320.738,414.203,323.479,414.203z M239.458,200.602v-0.084l0.021-0.104v-0.104v-0.082v-0.125l0.021-0.082v-0.105    v-0.082l0.021-0.125v-0.063l0.021-0.124v-0.063l0.021-0.146v-0.041l0.021-0.146v-0.041l0.018-0.166l0.021-0.021l0.021-0.165    v-0.021l0.021-0.166v-0.021l0.042-0.187l0,0l0.042-0.187l0,0l0.021-0.187l0,0l0.042-0.187l0,0l0.039-0.188v-0.021l0.042-0.166    v-0.021l0.042-0.145l0.021-0.043l0.042-0.145v-0.042l0.042-0.146l0.021-0.041l0.039-0.124v-0.063l0.042-0.124l0.021-0.063    l0.042-0.105l0.021-0.082l0.042-0.104l0.021-0.063l0.039-0.104l0.021-0.083l0.021-0.104l0.042-0.082l0.021-0.084l0.042-0.104    l0.042-0.063l0.039-0.104l0.021-0.063l0.042-0.124l0.021-0.062l0.063-0.105l0.021-0.063l0.042-0.124l0.021-0.041l0.06-0.124    l0.021-0.042l0.063-0.124l0.021-0.041l0.063-0.146l0.021-0.021l0.06-0.145v-0.021l0.084-0.146v-0.021l0.084-0.146v-0.021    l0.102-0.146l0,0l0.084-0.166l0,0l0.081-0.166h0.021l0.084-0.145v-0.021l0.084-0.145l0.021-0.021l0.081-0.125l0.021-0.041    l0.063-0.125l0.042-0.041l0.06-0.104l0.042-0.042l0.063-0.104l0.042-0.062l0.063-0.105l0.039-0.041l0.063-0.104l0.042-0.063    l0.063-0.083l0.042-0.062l0.06-0.084l0.063-0.063l0.042-0.082l0.063-0.084l0.06-0.063l0.063-0.082l0.042-0.063l0.084-0.083    l0.039-0.063l0.063-0.083l0.042-0.041l0.084-0.104l0.042-0.041l0.081-0.105l0.042-0.041l0.084-0.104l0.021-0.021l0.102-0.124    l0.021-0.021l0.105-0.104l0.021-0.021l0.123-0.125l0,0l0.126-0.123v-0.021l0.123-0.125l0.144-0.124l0.126-0.146l0.144-0.125    l0.126-0.123l0.144-0.125l0.147-0.125l0.144-0.124l0.144-0.125l0,0l0.147-0.104l0.144-0.123l0.147-0.125l0.165-0.104l0.144-0.124    l0.147-0.104l0.165-0.104l0.144-0.105l0.168-0.123l0,0l0.144-0.084l0.165-0.104l0.168-0.104l0.165-0.104l0.165-0.084l0.168-0.104    l0.165-0.082l0.165-0.104l0.168-0.083l0.165-0.083l0,0l0.165-0.083l0.186-0.082l0,0l0.168-0.084l0.165-0.084l0.186-0.061l0,0    l0.168-0.084l0.186-0.063l0.186-0.083l0,0l0.165-0.062l0.189-0.063l0.186-0.063l0,0l0.186-0.063l0,0l0.165-0.063h0.021    l0.168-0.063l0,0l0.186-0.041l0,0l0.186-0.063l0,0l0.186-0.041l0,0l0.189-0.063h0.018l0.168-0.041l0.207-0.042l0,0l0.186-0.041    l0,0l0.186-0.042l0,0l0.189-0.021h0.021l0.186-0.041l0,0l0.186-0.042l0.186-0.021h0.021l0.186-0.021l0,0l0.189-0.021h0.018    l0.189-0.02l0,0l0.186-0.021h0.021l0.186-0.021l0,0l0.207-0.02l0,0h0.186l0,0l0.21-0.021l0,0h0.207l0,0h0.186l0,0h0.207l0,0h0.207    l0,0h0.186h0.021h0.189l0,0l0.207,0.021l0,0h0.208l0,0l0.186,0.02l0,0l0.207,0.021l0,0l0.189,0.021l0,0l0.207,0.02l0,0    l0.186,0.021l0,0l0.207,0.021l0,0l0.187,0.021l0,0l0.186,0.042h0.021l0.189,0.041l0,0l0.186,0.021l0,0l0.187,0.042l0,0    l0.186,0.041h0.021l0.186,0.042l0,0l0.189,0.041l0,0l0.187,0.063l0,0l0.186,0.041l0,0l0.187,0.063l0,0l0.189,0.041l0,0    l0.186,0.063l0,0l0.187,0.063l0,0l0.164,0.063h0.021l0.169,0.063l0,0l0.186,0.063l0,0l0.186,0.062l0,0l0.165,0.083l0,0    l0.189,0.063l0,0l0.165,0.084h0.021l0.165,0.061l0,0l0.165,0.084l0,0l0.168,0.084h0.021l0.165,0.082l0,0l0.165,0.083l0,0    l0.168,0.083l0,0l0.165,0.083h0.021l0.164,0.104l0,0l0.165,0.082l0,0l0.169,0.104l0,0l0.144,0.084l0,0l0.169,0.104l0,0    l0.165,0.104l0,0l0.165,0.104l0,0l0.146,0.084l0,0l0.165,0.123l0,0l0.165,0.105l0,0l0.147,0.104l0,0l0.145,0.104l0,0l0.164,0.124    l0,0l0.147,0.104l0,0l0.145,0.125l0,0l0.144,0.123l0,0l0.147,0.104l0,0l0.144,0.125l0,0l0.147,0.124l0,0l0.145,0.125l0,0    l0.144,0.125l0,0l0.126,0.123h0.021l0.123,0.125l0,0l0.126,0.146h0.021l0.122,0.124l0,0l0.127,0.125v0.021l0.249,0.248    l0.021,0.021l0.102,0.104l0.021,0.021l0.105,0.124l0.021,0.021l0.102,0.104l0.021,0.041l0.127,0.146l0.08,0.104l0.043,0.041    l0.084,0.083l0.042,0.063l0.06,0.083l0.042,0.063l0.084,0.082l0.043,0.063l0.06,0.084l0.042,0.082l0.063,0.063l0.063,0.084    l0.102,0.145l0.043,0.063l0.063,0.104l0.042,0.063l0.081,0.084l0.021,0.062l0.084,0.104l0.021,0.042l0.081,0.104l0.021,0.041    l0.084,0.125l0.021,0.041l0.063,0.125l0.021,0.021l0.08,0.145l0.021,0.021l0.084,0.145l0.081,0.166l0,0l0.105,0.166l0,0    l0.084,0.166l0,0l0.08,0.146v0.021l0.085,0.146v0.021l0.084,0.145v0.021l0.081,0.146v0.041l0.063,0.124l0.021,0.042l0.063,0.124    l0.021,0.041l0.06,0.124l0.021,0.063l0.126,0.354l0.063,0.104l0.018,0.063l0.042,0.104l0.021,0.084l0.042,0.104l0.021,0.083    l0.063,0.187l0.038,0.063l0.021,0.104l0.021,0.082l0.042,0.105l0.021,0.063l0.042,0.124l0.021,0.063l0.021,0.124l0.021,0.062    l0.039,0.125l0.021,0.042l0.021,0.145l0.021,0.043l0.042,0.145v0.041l0.042,0.146v0.021l0.043,0.188l0,0l0.042,0.187l0,0    l0.038,0.187l0,0l0.021,0.187l0,0l0.042,0.187v0.021l0.021,0.166l0.021,0.021l0.021,0.165v0.021l0.021,0.166v0.041l0.021,0.146    v0.041l0.021,0.146v0.063l0.018,0.124v0.063l0.021,0.125v0.082v0.125l0.021,0.063v0.125v0.082l0.021,0.104v0.104v0.084    c0.853-1.059,1.601-2.2,2.222-3.404c1.432-2.76,2.242-5.915,2.242-9.236c0-5.563-2.264-10.627-5.917-14.26    c-3.653-3.652-8.696-5.915-14.259-5.915s-10.605,2.263-14.259,5.915c-3.654,3.633-5.896,8.697-5.896,14.26    c0,3.321,0.79,6.477,2.221,9.217C237.861,198.401,238.609,199.543,239.458,200.602z M244.003,398.491h92.844l7.928-14.052v-84.582    c0-2.906-1.183-5.584-3.112-7.492c-1.931-1.931-4.588-3.135-7.493-3.135c-2.885,0-5.499,1.162-7.412,3.031    c-1.847,1.805-3.05,4.275-3.194,7.015v0.249c0,1.411-1.164,2.553-2.555,2.553c-1.41,0-2.551-1.142-2.551-2.553v-19.158    c0-2.906-1.204-5.563-3.135-7.492c-1.908-1.91-4.565-3.114-7.492-3.114c-2.867,0-5.482,1.143-7.392,3.011    c-1.866,1.805-3.07,4.296-3.218,7.016v0.248c0,1.411-1.141,2.553-2.552,2.553c-1.41,0-2.551-1.142-2.551-2.553v-14.943    c0-2.906-1.208-5.564-3.117-7.494c-1.93-1.909-4.587-3.113-7.492-3.113c-2.885,0-5.5,1.142-7.409,3.01    c-1.846,1.806-3.05,4.275-3.218,7.016v0.249c0,1.411-1.141,2.554-2.552,2.554c-1.39,0-2.555-1.143-2.555-2.554V201.12v-0.145    v-0.125v-0.146v-0.125l-0.021-0.145v-0.125l0,0l-0.021-0.145v-0.125l-0.018-0.125l-0.021-0.145l0,0v-0.125l-0.021-0.145    l-0.021-0.125l-0.042-0.125l0,0l-0.042-0.27l0,0l-0.021-0.124l0,0l-0.043-0.124l-0.018-0.125l0,0l-0.042-0.125l0,0l-0.021-0.125    l0,0l-0.085-0.248l-0.122-0.375l0,0l-0.085-0.248l-0.042-0.124l-0.042-0.124l-0.06-0.125l-0.084-0.229l0,0l-0.063-0.124    l-0.063-0.104l-0.039-0.125l0,0l-0.063-0.125l0,0l-0.063-0.104l0,0l-0.063-0.124l0,0l-0.123-0.228l-0.063-0.104l0,0l-0.063-0.105    l0,0l-0.06-0.104l0,0l-0.063-0.124l-0.063-0.104l0,0l-0.08-0.104l-0.063-0.104l0,0l-0.084-0.104l0,0l-0.063-0.104l-0.081-0.104    l0,0l-0.084-0.104l-0.063-0.104l0,0l-0.08-0.104l0,0l-0.084-0.104l0,0l-0.085-0.104l0,0l-0.08-0.084l-0.085-0.104l0,0    l-0.084-0.104l0,0l-0.081-0.083l0,0l-0.084-0.104l0,0l-0.084-0.083l0,0l-0.081-0.104l0,0l-0.105-0.084l0,0l-0.08-0.082l0,0    l-0.105-0.104l0,0l-0.084-0.083l0,0l-0.081-0.082h-0.021l-0.085-0.084l0,0l-0.105-0.082l0,0l-0.08-0.084l0,0l-0.105-0.082l0,0    l-0.102-0.084l0,0l-0.105-0.083l0,0l-0.102-0.083l0,0l-0.084-0.063h-0.021l-0.084-0.082h-0.021l-0.081-0.084l0,0l-0.104-0.062    h-0.021l-0.081-0.083h-0.021l-0.105-0.063l0,0l-0.102-0.063l0,0l-0.105-0.083l0,0l-0.105-0.063l0,0l-0.102-0.062h-0.021    l-0.104-0.063l0,0l-0.103-0.063l0,0l-0.126-0.063l0,0l-0.102-0.063l0,0l-0.127-0.062l0,0l-0.102-0.062l0,0l-0.126-0.063l0,0    l-0.102-0.043l0,0l-0.127-0.063l0,0l-0.122-0.041l0,0l-0.105-0.063h-0.021l-0.102-0.041l0,0l-0.126-0.063l0,0l-0.123-0.041l0,0    l-0.127-0.041l0,0l-0.102-0.042h-0.021l-0.105-0.042h-0.021l-0.102-0.041l0,0l-0.126-0.041l0,0l-0.123-0.041l0,0l-0.127-0.043l0,0    l-0.122-0.041h-0.021l-0.126-0.021l0,0l-0.123-0.041l0,0l-0.126-0.021l0,0l-0.123-0.041l0,0l-0.127-0.021l0,0l-0.122-0.021h-0.021    l-0.126-0.021l0,0l-0.123-0.021l0,0l-0.126-0.021l0,0l-0.144-0.021l0,0l-0.123-0.021l0,0l-0.126-0.021l0,0l-0.144-0.021l0,0    h-0.126l0,0l-0.144-0.021l0,0h-0.126l0,0l-0.144-0.021l0,0h-0.126l0,0h-0.144l0,0h-0.123l0,0h-0.147l0,0h-0.123h-0.021H254.9l0,0    h-0.123h-0.021h-0.126l0,0l-0.123,0.021h-0.021h-0.126l-0.123,0.021h-0.021h-0.123l0,0l-0.126,0.021l-0.144,0.021l-0.126,0.021    l0,0l-0.123,0.021l0,0l-0.147,0.021l-0.123,0.021l-0.126,0.021l-0.123,0.021l-0.147,0.021l-0.123,0.041l0,0l-0.126,0.021    l-0.123,0.041l-0.123,0.021l-0.126,0.041l-0.123,0.043l-0.126,0.041l-0.123,0.041l-0.126,0.041l-0.123,0.042l-0.126,0.042l0,0    l-0.123,0.041l-0.126,0.041l-0.123,0.063l-0.105,0.041l-0.123,0.063l-0.126,0.041l-0.102,0.063l-0.126,0.043l0,0l-0.123,0.063    l-0.105,0.062l-0.123,0.062l-0.105,0.063l-0.105,0.063l-0.123,0.063l-0.105,0.063l-0.102,0.062l-0.126,0.063l-0.102,0.083    l-0.105,0.063l-0.102,0.063l-0.105,0.083l-0.105,0.062l-0.102,0.084l-0.105,0.082l-0.102,0.063l-0.105,0.083l-0.102,0.083    l-0.105,0.084l-0.084,0.082l-0.102,0.084l-0.105,0.082l-0.081,0.084l-0.105,0.082l-0.084,0.083l-0.102,0.104l-0.084,0.082    c-1.909,1.931-3.113,4.588-3.113,7.493v5.418v146.455c-0.021,0.894-0.478,1.765-1.309,2.222c-1.225,0.684-2.78,0.248-3.464-0.977    l-2.618-4.607c-7.324-13.055-15.024-26.775-26.233-30.159c-2.927-0.892-5.521-0.933-7.451-0.187    c-1.309,0.52-2.327,1.433-2.927,2.719c-0.667,1.433-0.853,3.404-0.417,5.895c1.039,5.834,5.44,13.969,14.778,24.182    c4.359,4.753,5.106,10.357,5.896,16.168c1.183,8.946,2.471,18.495,20.506,24.285c0.811,0.271,1.495,0.935,1.702,1.827    L244.003,398.491z M257.725,63.486v85.826c0,1.391-1.144,2.554-2.555,2.554c-1.411,0-2.551-1.163-2.551-2.554V63.486    c-2.201-0.477-4.194-1.598-5.731-3.154l-0.165-0.166c-2.015-2.097-3.26-4.961-3.26-8.116c0-3.216,1.309-6.144,3.425-8.282    c1.558-1.535,3.53-2.656,5.731-3.154V28.555c0-1.412,1.141-2.553,2.551-2.553c1.411,0,2.555,1.141,2.555,2.553v12.059    c2.197,0.498,4.169,1.619,5.728,3.154c2.138,2.117,3.446,5.045,3.446,8.282c0,3.238-1.309,6.165-3.446,8.282    C261.915,61.889,259.942,63.01,257.725,63.486z M295.23,46.218c2.011,1.058,3.633,2.657,4.71,4.546    c1.495,2.594,2.015,5.77,1.183,8.883c-0.828,3.113-2.863,5.604-5.479,7.1c-1.888,1.1-4.088,1.66-6.331,1.577l-22.229,82.879    c-0.354,1.37-1.745,2.179-3.113,1.806c-1.352-0.354-2.158-1.764-1.808-3.113l22.208-82.9c-1.989-1.037-3.611-2.636-4.709-4.525    c-1.495-2.594-2.015-5.77-1.184-8.883c0.829-3.113,2.885-5.625,5.479-7.119c1.889-1.08,4.089-1.66,6.353-1.557l3.113-11.665    c0.354-1.35,1.765-2.159,3.112-1.806c1.372,0.373,2.18,1.764,1.808,3.134L295.23,46.218z M329.996,61.35    c1.66,1.535,2.822,3.486,3.383,5.604c0.79,2.885,0.457,6.082-1.161,8.883c-1.618,2.803-4.215,4.691-7.121,5.459    c-2.095,0.561-4.38,0.54-6.538-0.145l-42.9,74.328c-0.709,1.203-2.264,1.619-3.488,0.934c-1.204-0.705-1.618-2.262-0.934-3.486    l42.922-74.328c-1.682-1.516-2.844-3.488-3.401-5.584c-0.747-2.803-0.46-5.895,1.036-8.635l0.248-0.436    c1.622-2.699,4.174-4.524,6.995-5.271c2.12-0.582,4.38-0.561,6.538,0.145l6.039-10.461c0.706-1.225,2.264-1.639,3.489-0.934    c1.204,0.705,1.618,2.262,0.934,3.486L329.996,61.35z M359.676,84.97c1.225,1.909,1.828,4.089,1.828,6.269    c0,3.009-1.141,5.998-3.425,8.281l-0.187,0.187c-2.284,2.158-5.189,3.259-8.117,3.259c-2.18,0-4.358-0.602-6.268-1.826    l-60.69,60.67c-0.996,0.996-2.614,0.996-3.611,0c-0.996-0.996-0.996-2.615,0-3.611l60.69-60.67    c-1.225-1.91-1.825-4.09-1.825-6.289c0-2.99,1.141-5.979,3.425-8.282c2.303-2.282,5.293-3.425,8.279-3.425    c2.201,0,4.38,0.602,6.289,1.826l8.531-8.531c0.997-0.995,2.615-0.995,3.611,0c0.997,0.977,0.997,2.616,0,3.592L359.676,84.97z     M382.217,115.439c0.688,2.158,0.706,4.441,0.148,6.538c-0.77,2.885-2.657,5.5-5.461,7.119c-2.801,1.62-5.998,1.951-8.883,1.162    c-2.116-0.56-4.067-1.722-5.604-3.383l-74.328,42.903c-1.204,0.705-2.759,0.27-3.468-0.934c-0.684-1.226-0.267-2.781,0.938-3.467    l74.328-42.903c-0.688-2.158-0.727-4.442-0.147-6.56c0.769-2.885,2.657-5.479,5.439-7.098l0.187-0.104    c2.762-1.536,5.875-1.827,8.717-1.08c2.096,0.561,4.068,1.723,5.605,3.404l10.44-6.039c1.225-0.707,2.779-0.271,3.485,0.933    c0.684,1.226,0.27,2.782-0.955,3.467L382.217,115.439z M396.125,150.725c0.085,2.263-0.477,4.463-1.578,6.352l-0.081,0.166    c-1.517,2.512-3.966,4.482-7.016,5.293c-3.113,0.83-6.289,0.332-8.886-1.162c-1.889-1.101-3.485-2.72-4.545-4.733l-82.877,22.209    c-1.373,0.374-2.763-0.435-3.138-1.806c-0.352-1.348,0.46-2.738,1.808-3.113l82.901-22.209c-0.105-2.262,0.478-4.463,1.555-6.351    c1.495-2.595,4.008-4.629,7.12-5.459c3.113-0.831,6.289-0.333,8.883,1.162c1.889,1.1,3.488,2.72,4.523,4.731l11.666-3.133    c1.352-0.354,2.762,0.457,3.113,1.805c0.375,1.371-0.436,2.762-1.804,3.114L396.125,150.725z M400.422,188.397    c-0.499,2.221-1.619,4.192-3.156,5.749c-2.115,2.117-5.063,3.425-8.303,3.425c-3.215,0-6.163-1.308-8.279-3.425l-0.168-0.187    c-1.453-1.515-2.51-3.425-2.986-5.563h-85.808c-1.411,0-2.552-1.142-2.552-2.554c0-1.391,1.141-2.553,2.552-2.553h85.808    c0.498-2.2,1.617-4.172,3.154-5.708c2.138-2.138,5.064-3.446,8.279-3.446c3.239,0,6.166,1.309,8.282,3.426    c1.558,1.557,2.678,3.528,3.177,5.729h12.058c1.415,0,2.556,1.162,2.556,2.553c0,1.412-1.141,2.554-2.556,2.554H400.422z     M109.94,183.291c0.498-2.2,1.618-4.172,3.155-5.708c2.116-2.138,5.064-3.446,8.283-3.446c3.236,0,6.142,1.309,8.282,3.426    c1.555,1.557,2.657,3.528,3.155,5.729h85.804c1.411,0,2.555,1.162,2.555,2.553c0,1.412-1.144,2.554-2.555,2.554h-85.804    c-0.499,2.221-1.601,4.192-3.155,5.749c-2.12,2.117-5.046,3.425-8.282,3.425c-3.239,0-6.167-1.308-8.283-3.425l-0.165-0.187    c-1.453-1.515-2.513-3.425-2.99-5.563H97.881c-1.411,0-2.555-1.142-2.555-2.554c0-1.391,1.144-2.553,2.555-2.553H109.94z     M115.544,145.805c1.057-2.012,2.657-3.632,4.545-4.731c2.593-1.495,5.749-1.993,8.882-1.162c3.117,0.83,5.605,2.864,7.1,5.459    c1.102,1.888,1.66,4.089,1.558,6.351l82.898,22.209c1.351,0.375,2.158,1.766,1.807,3.113c-0.375,1.371-1.765,2.18-3.113,1.806    l-82.901-22.209c-1.039,2.014-2.636,3.633-4.545,4.733c-2.576,1.494-5.749,1.992-8.865,1.162c-3.134-0.83-5.623-2.865-7.117-5.459    c-1.102-1.889-1.66-4.089-1.559-6.352l-11.666-3.134c-1.348-0.353-2.158-1.743-1.804-3.114c0.372-1.348,1.765-2.158,3.113-1.805    L115.544,145.805z M130.674,111.039c1.537-1.682,3.489-2.844,5.605-3.404c2.885-0.768,6.061-0.436,8.865,1.184    c2.822,1.619,4.689,4.213,5.479,7.098c0.562,2.117,0.541,4.401-0.144,6.56l74.307,42.903c1.225,0.686,1.639,2.241,0.934,3.467    c-0.684,1.203-2.243,1.639-3.467,0.934l-74.328-42.903c-1.516,1.681-3.485,2.823-5.605,3.404c-2.779,0.747-5.871,0.437-8.612-1.06    l-0.435-0.228c-2.699-1.619-4.527-4.173-5.296-7.016c-0.558-2.097-0.537-4.38,0.147-6.538l-10.441-6.04    c-1.225-0.706-1.639-2.263-0.933-3.467c0.705-1.225,2.263-1.64,3.467-0.933L130.674,111.039z M154.296,81.357    c1.909-1.225,4.088-1.826,6.268-1.826c2.99,0,5.998,1.143,8.282,3.425c2.302,2.283,3.443,5.292,3.443,8.282    c0,2.179-0.621,4.358-1.846,6.289l60.689,60.67c0.997,0.996,0.997,2.615,0,3.611c-0.993,0.996-2.614,0.996-3.611,0l-60.689-60.67    c-1.909,1.225-4.089,1.826-6.268,1.826c-3.011,0-5.998-1.142-8.282-3.445c-2.281-2.283-3.447-5.272-3.447-8.281    c0-2.18,0.625-4.359,1.85-6.269l-8.553-8.552c-0.997-0.976-0.997-2.615,0-3.592c0.997-0.995,2.615-0.995,3.611,0L154.296,81.357z     M184.766,58.816c2.158-0.685,4.422-0.727,6.538-0.145c2.885,0.768,5.5,2.656,7.121,5.459c1.597,2.802,1.93,5.998,1.162,8.883    c-0.562,2.096-1.723,4.068-3.383,5.584l42.9,74.328c0.709,1.225,0.292,2.781-0.934,3.486c-1.204,0.686-2.758,0.27-3.464-0.934    L191.781,81.15c-2.158,0.685-4.422,0.705-6.538,0.145c-2.885-0.768-5.5-2.656-7.1-5.459l-0.102-0.166    c-1.537-2.76-1.849-5.894-1.081-8.717c0.562-2.117,1.723-4.068,3.404-5.604l-6.04-10.461c-0.706-1.205-0.292-2.762,0.934-3.467    c1.204-0.686,2.762-0.271,3.467,0.934L184.766,58.816z M220.05,44.91c2.264-0.104,4.464,0.477,6.353,1.557l0.165,0.104    c2.513,1.516,4.485,3.965,5.292,7.016c0.832,3.113,0.313,6.289-1.183,8.883c-1.078,1.89-2.699,3.488-4.71,4.525l22.208,82.9    c0.354,1.35-0.436,2.76-1.808,3.113c-1.348,0.373-2.758-0.436-3.113-1.806l-22.208-82.879c-2.264,0.083-4.464-0.478-6.353-1.577    c-2.593-1.495-4.629-3.986-5.457-7.1c-0.853-3.113-0.333-6.289,1.162-8.883c1.102-1.889,2.72-3.488,4.73-4.546l-3.134-11.645    c-0.351-1.37,0.46-2.761,1.808-3.134c1.369-0.354,2.762,0.456,3.113,1.806L220.05,44.91z M358.079,329.041    c0-1.412,1.161-2.554,2.555-2.554c1.411,0,2.552,1.142,2.552,2.554v55.398c0,0.518-0.145,1.017-0.436,1.41l-4.172,7.265v26.797    c0,1.411-1.162,2.553-2.553,2.553c-1.414,0-2.555-1.142-2.555-2.553V392.43c0-0.414,0.105-0.871,0.355-1.266l4.253-7.389V329.041z     M371.654,480.893c1.41,0,2.551,1.142,2.551,2.553c0,1.412-1.141,2.554-2.551,2.554h-82.176c-1.411,0-2.551-1.142-2.551-2.554    c0-1.411,1.14-2.553,2.551-2.553H371.654z M185.556,485.999c-1.415,0-2.555-1.142-2.555-2.554c0-1.411,1.141-2.553,2.555-2.553    h36.26c1.411,0,2.551,1.142,2.551,2.553c0,1.412-1.141,2.554-2.551,2.554H185.556z M244.501,485.999    c-1.411,0-2.551-1.142-2.551-2.554c0-1.411,1.141-2.553,2.551-2.553h35.162c1.39,0,2.53,1.142,2.53,2.553    c0,1.412-1.141,2.554-2.53,2.554H244.501z M252.889,472.59c-1.414,0-2.555-1.142-2.555-2.554c0-1.391,1.141-2.552,2.555-2.552    h131.364c1.411,0,2.552,1.161,2.552,2.552c0,1.412-1.141,2.554-2.552,2.554H252.889z M397.701,472.59    c-1.41,0-2.551-1.142-2.551-2.554c0-1.391,1.141-2.552,2.551-2.552h16.421c1.411,0,2.552,1.161,2.552,2.552    c0,1.412-1.141,2.554-2.552,2.554H397.701z M344.774,403.576H243.276v41.159h101.498V403.576z" style="fill-rule:evenodd;clip-rule:evenodd;"/></g></g><g id="Layer_1"/></svg>