<?xml version="1.0" ?><svg viewBox="0 0 512 512" xmlns="http://www.w3.org/2000/svg"><title/><g id="Suitcase"><path d="M465,120.1519H406.0981V458.3481H465A17.0965,17.0965,0,0,0,482.0981,441.25v-304A17.0965,17.0965,0,0,0,465,120.1519Z"/><path d="M330.0981,70.75A17.0965,17.0965,0,0,0,313,53.6519H199A17.0965,17.0965,0,0,0,181.9019,70.75v49.4019H140.0981V458.3481H371.9019V120.1519H330.0981Zm-114,17.0981h79.8038v32.3038H216.0981ZM273.8171,393.75,170.4988,345.5728l28.1034-60.27L301.9217,333.48ZM331.9988,227.5a33.25,33.25,0,1,1-33.25-33.25A33.2494,33.2494,0,0,1,331.9988,227.5Z"/><path d="M29.9019,137.25v304A17.0965,17.0965,0,0,0,47,458.3481h58.9019V120.1519H47A17.0965,17.0965,0,0,0,29.9019,137.25Z"/></g></svg>